<?xml version="1.0" encoding="UTF-8" standalone="no"?>
<!-- Created with Inkscape (http://www.inkscape.org/) -->

<svg
   width="800"
   height="200"
   viewBox="0 0 211.66666 52.916666"
   version="1.1"
   id="svg5"
   inkscape:version="1.2.1 (9c6d41e410, 2022-07-14)"
   sodipodi:docname="sharpRevitLogo.svg"
   xmlns:inkscape="http://www.inkscape.org/namespaces/inkscape"
   xmlns:sodipodi="http://sodipodi.sourceforge.net/DTD/sodipodi-0.dtd"
   xmlns="http://www.w3.org/2000/svg"
   xmlns:svg="http://www.w3.org/2000/svg">
  <sodipodi:namedview
     id="namedview7"
     pagecolor="#ffffff"
     bordercolor="#000000"
     borderopacity="0.25"
     inkscape:showpageshadow="2"
     inkscape:pageopacity="0.0"
     inkscape:pagecheckerboard="0"
     inkscape:deskcolor="#d1d1d1"
     inkscape:document-units="px"
     showgrid="false"
     inkscape:zoom="1.2938725"
     inkscape:cx="301.0343"
     inkscape:cy="197.46923"
     inkscape:window-width="3440"
     inkscape:window-height="1351"
     inkscape:window-x="-9"
     inkscape:window-y="-9"
     inkscape:window-maximized="1"
     inkscape:current-layer="layer1" />
  <defs
     id="defs2">
    <rect
       x="145.37012"
       y="318.06546"
       width="424.08728"
       height="219.6947"
       id="rect236" />
    <rect
       x="145.37012"
       y="318.06546"
       width="424.08728"
       height="219.6947"
       id="rect236-3" />
  </defs>
  <g
     inkscape:label="Layer 1"
     inkscape:groupmode="layer"
     id="layer1">
    <path
       d="m 14.498646,37.473761 c 5.638408,0 9.596493,-2.912554 9.596493,-8.10287 v -0.07468 c 0,-4.555533 -2.987239,-6.459898 -8.289576,-7.841492 -4.51819,-1.157553 -5.638408,-1.717666 -5.638408,-3.435323 v -0.07468 c 0,-1.269573 1.157553,-2.27777 3.360638,-2.27777 2.203092,0 4.480855,0.970854 6.79596,2.576491 l 2.987239,-4.331491 C 20.659816,11.78355 17.4112,10.588654 13.602478,10.588654 c -5.3396797,0 -9.1484085,3.136595 -9.1484085,7.878828 v 0.07468 c 0,5.190317 3.3979802,6.646597 8.6629825,7.990849 4.368833,1.120217 5.265001,1.867022 5.265001,3.323302 v 0.07468 c 0,1.530959 -1.418937,2.46447 -3.771386,2.46447 -2.987231,0 -5.4517007,-1.232231 -7.8041491,-3.173939 l -3.3979802,4.070107 c 3.1365954,2.800532 7.1320233,4.182127 11.0901083,4.182127 z"
       id="path483"
       style="font-size:50.4668px;font-family:Gotham;-inkscape-font-specification:'Gotham, @wght=700';font-variation-settings:'wght' 700;text-align:center;text-anchor:middle;white-space:pre;stroke-width:0.671155" />
    <path
       d="m 28.501286,37.100362 h 5.675743 V 25.935568 c 0,-2.688511 1.381603,-4.070106 3.547344,-4.070106 2.165742,0 3.435323,1.381595 3.435323,4.070106 v 11.164794 h 5.675743 v -12.95713 c 0,-4.592876 -2.501812,-7.430751 -6.79596,-7.430751 -2.875211,0 -4.555533,1.530959 -5.86245,3.211281 V 2.2757312 l -5.675743,6.7960076 z"
       id="path485"
       style="font-size:50.4668px;font-family:Gotham;-inkscape-font-specification:'Gotham, @wght=700';font-variation-settings:'wght' 700;text-align:center;text-anchor:middle;white-space:pre;stroke-width:0.671155"
       sodipodi:nodetypes="ccsssccsscccc" />
    <path
       d="m 57.440092,37.473761 c 2.763189,0 4.667554,-1.008189 6.049149,-2.539148 v 2.165749 h 5.489043 V 25.487484 c 0,-2.688511 -0.672126,-4.891596 -2.165741,-6.385212 -1.418938,-1.418937 -3.659365,-2.240427 -6.758618,-2.240427 -3.39798,0 -5.56373,0.63479 -7.766814,1.605637 l 1.418937,4.331491 c 1.829679,-0.672126 3.360638,-1.082868 5.526387,-1.082868 2.837868,0 4.294148,1.30691 4.294148,3.659358 v 0.336063 c -1.418937,-0.485427 -2.87521,-0.82149 -4.891596,-0.82149 -4.742239,0 -8.065534,2.016386 -8.065534,6.38522 v 0.07468 c 0,3.958085 3.099253,6.123827 6.870639,6.123827 z m 1.717657,-3.920743 c -1.829678,0 -3.099252,-0.896168 -3.099252,-2.427126 v -0.07468 c 0,-1.792344 1.493616,-2.763197 3.920742,-2.763197 1.381595,0 2.651176,0.298727 3.622023,0.746811 v 1.008189 c 0,2.053728 -1.792337,3.510001 -4.443513,3.510001 z"
       id="path487"
       style="font-size:50.4668px;font-family:Gotham;-inkscape-font-specification:'Gotham, @wght=700';font-variation-settings:'wght' 700;text-align:center;text-anchor:middle;white-space:pre;stroke-width:0.671155" />
    <path
       d="m 73.869917,37.100362 h 5.675743 v -7.393408 c 0,-4.779575 2.315106,-7.057338 6.086492,-7.057338 h 0.298728 v -5.937135 c -3.360645,-0.149356 -5.227667,1.64298 -6.38522,4.406177 v -4.032771 h -5.675743 z"
       id="path489"
       style="font-size:50.4668px;font-family:Gotham;-inkscape-font-specification:'Gotham, @wght=700';font-variation-settings:'wght' 700;text-align:center;text-anchor:middle;white-space:pre;stroke-width:0.671155" />
    <path
       d="m 89.478187,44.627803 5.67575,6.217624 V 34.486529 c 1.344252,1.605637 3.211274,2.987232 6.235853,2.987232 4.74223,0 9.11106,-3.659358 9.11106,-10.343297 v -0.07468 c 0,-6.68394 -4.44351,-10.343305 -9.11106,-10.343305 -2.949894,0 -4.854258,1.381602 -6.235853,3.248624 v -2.875218 h -5.67575 z M 99.933512,32.65685 c -2.651168,0 -4.85426,-2.203084 -4.85426,-5.526386 v -0.07468 c 0,-3.323302 2.203092,-5.526387 4.85426,-5.526387 2.651168,0 4.891598,2.203085 4.891598,5.526387 v 0.07468 c 0,3.360637 -2.24043,5.526386 -4.891598,5.526386 z"
       id="path491"
       style="font-size:50.4668px;font-family:Gotham;-inkscape-font-specification:'Gotham, @wght=700';font-variation-settings:'wght' 700;text-align:center;text-anchor:middle;white-space:pre;stroke-width:0.671155"
       sodipodi:nodetypes="cccssssccccsssssss" />
    <path
       d="m 115.2804,37.100362 h 5.75043 v -8.364261 h 4.51819 l 5.60107,8.364261 h 6.72127 l -6.38521,-9.335108 c 3.3233,-1.232238 5.60107,-3.883407 5.60107,-8.102877 v -0.07468 c 0,-2.464469 -0.78415,-4.518198 -2.24043,-5.974471 -1.71766,-1.717657 -4.29415,-2.651168 -7.61744,-2.651168 H 115.2804 Z m 5.75043,-13.442557 v -7.505429 h 5.71309 c 2.80053,0 4.51819,1.269574 4.51819,3.734043 v 0.07469 c 0,2.203084 -1.60564,3.6967 -4.40617,3.6967 z"
       id="path493"
       style="font-size:50.4668px;font-family:Gotham;-inkscape-font-specification:'Gotham, @wght=700';font-variation-settings:'wght' 700;text-align:center;text-anchor:middle;white-space:pre;stroke-width:0.671155" />
    <path
       d="m 150.79113,37.548446 c 3.62202,0 6.31053,-1.418937 8.17755,-3.734043 l -3.24862,-2.875218 c -1.56829,1.456281 -2.94989,2.053728 -4.85425,2.053728 -2.53915,0 -4.33149,-1.344259 -4.8916,-3.920749 h 13.92798 c 0.0374,-0.522763 0.0747,-1.045532 0.0747,-1.493616 0,-5.675743 -3.06192,-10.866067 -9.74585,-10.866067 -5.82511,0 -9.89522,4.704897 -9.89522,10.417983 v 0.07468 c 0,6.123834 4.44351,10.343304 10.45533,10.343304 z m -4.8916,-12.023619 c 0.44809,-2.576491 1.97904,-4.256813 4.33149,-4.256813 2.38979,0 3.8834,1.717665 4.21947,4.256813 z"
       id="path495"
       style="font-size:50.4668px;font-family:Gotham;-inkscape-font-specification:'Gotham, @wght=700';font-variation-settings:'wght' 700;text-align:center;text-anchor:middle;white-space:pre;stroke-width:0.671155" />
    <path
       d="m 169.34937,37.249719 2.57649,6.109124 2.57649,-6.109124 7.87883,-20.163832 h -5.89979 l -4.51819,13.405214 -4.48085,-13.405214 h -6.01181 z"
       id="path497"
       style="font-size:50.4668px;font-family:Gotham;-inkscape-font-specification:'Gotham, @wght=700';font-variation-settings:'wght' 700;text-align:center;text-anchor:middle;white-space:pre;stroke-width:0.671155"
       sodipodi:nodetypes="ccccccccc" />
    <path
       d="m 185.77918,14.882802 h 5.97447 V 9.8418424 h -5.97447 z m 0.14936,22.21756 h 5.67575 V 17.085887 h -5.67575 z"
       id="path499"
       style="font-size:50.4668px;font-family:Gotham;-inkscape-font-specification:'Gotham, @wght=700';font-variation-settings:'wght' 700;text-align:center;text-anchor:middle;white-space:pre;stroke-width:0.671155" />
    <path
       d="m 203.70258,37.436425 c 1.90436,0 3.28596,-0.448084 4.48085,-1.157552 V 31.72334 c -0.82149,0.448084 -1.755,0.709468 -2.80053,0.709468 -1.26958,0 -1.82968,-0.63479 -1.82968,-1.941707 v -8.550954 h 4.7049 v -4.85426 h -4.7049 v -5.115638 h -5.67574 v 5.115638 h -2.3898 v 4.85426 h 2.3898 v 9.484465 c 0,4.630219 2.35244,6.011813 5.8251,6.011813 z"
       id="path501"
       style="font-size:50.4668px;font-family:Gotham;-inkscape-font-specification:'Gotham, @wght=700';font-variation-settings:'wght' 700;text-align:center;text-anchor:middle;white-space:pre;stroke-width:0.671155" />
    <text
       xml:space="preserve"
       transform="matrix(0.73990093,0,0,0.73990093,-137.92711,-148.4022)"
       id="text234-9"
       style="font-size:50.4668px;font-family:Gotham;-inkscape-font-specification:'Gotham, @wght=700';font-variation-settings:'wght' 700;text-align:center;white-space:pre;shape-inside:url(#rect236-3);fill:#000000;stroke-width:0.907087"><tspan
         x="216.96496"
         y="364.7482"
         id="tspan684">SharpRevit</tspan></text>
  </g>
</svg>
